<svg width="751" height="350" viewBox="0 0 751 350" fill="none" xmlns="http://www.w3.org/2000/svg">
<path d="M751 175C751 209.612 740.737 243.446 721.508 272.225C702.279 301.004 674.947 323.434 642.97 336.679C610.993 349.924 575.807 353.39 541.86 346.637C507.913 339.885 476.731 323.217 452.257 298.743C451.9 298.386 451.555 298.018 451.22 297.641L263.874 86.1008C246.335 68.7642 224.06 57.0029 199.852 52.2969C175.645 47.591 150.586 50.1508 127.829 59.6542C105.073 69.1575 85.6364 85.1797 71.9652 105.704C58.294 126.229 50.9994 150.339 50.9994 175C50.9994 199.661 58.294 223.771 71.9652 244.296C85.6364 264.82 105.073 280.842 127.829 290.346C150.586 299.849 175.645 302.409 199.852 297.703C224.06 292.997 246.335 281.236 263.874 263.899L290.496 233.839C292.671 231.377 295.311 229.368 298.263 227.926C301.216 226.485 304.424 225.64 307.703 225.439C310.983 225.238 314.269 225.686 317.376 226.756C320.482 227.826 323.347 229.499 325.807 231.677C328.266 233.856 330.272 236.498 331.71 239.452C333.148 242.406 333.989 245.615 334.186 248.895C334.383 252.174 333.931 255.461 332.857 258.566C331.783 261.671 330.107 264.534 327.926 266.991L300.78 297.641C300.446 298.018 300.1 298.385 299.743 298.743C275.269 323.217 244.087 339.885 210.14 346.637C176.193 353.39 141.006 349.924 109.029 336.679C77.0519 323.434 49.7204 301.004 30.4911 272.225C11.2617 243.446 0.998047 209.612 0.998047 175C0.998047 140.388 11.2617 106.554 30.4911 77.7749C49.7204 48.9962 77.0519 26.566 109.029 13.3208C141.006 0.0755148 176.193 -3.3899 210.14 3.36274C244.087 10.1154 275.269 26.7828 299.743 51.2573C300.1 51.6144 300.446 51.9816 300.78 52.359L488.126 263.899C505.665 281.236 527.94 292.997 552.148 297.703C576.355 302.409 601.414 299.849 624.171 290.346C646.927 280.842 666.364 264.82 680.035 244.296C693.706 223.771 701.001 199.661 701.001 175C701.001 150.339 693.706 126.229 680.035 105.704C666.364 85.1797 646.927 69.1575 624.171 59.6542C601.414 50.1508 576.355 47.591 552.148 52.2969C527.94 57.0029 505.665 68.7642 488.126 86.1008L461.504 116.161C457.105 121.112 450.92 124.116 444.308 124.512C437.696 124.907 431.198 122.663 426.239 118.271C421.28 113.88 418.267 107.699 417.862 101.088C417.456 94.4768 419.69 87.9746 424.074 83.0094L451.22 52.359C451.554 51.9821 451.9 51.6149 452.257 51.2573C476.731 26.7835 507.913 10.1167 541.86 3.36438C575.806 -3.38788 610.993 0.0776949 642.969 13.3229C674.946 26.568 702.277 48.9979 721.507 77.7762C740.736 106.554 751 140.388 751 175Z" fill="black"/>
</svg>
