<svg width="1044" height="200" viewBox="0 0 1044 200" fill="none" xmlns="http://www.w3.org/2000/svg">
<path d="M856.901 45.5001C876.301 47.2001 893.501 32.9001 895.201 13.5001C895.301 12.9001 895.301 12.3001 895.301 11.6001H874.901C872.801 19.8001 867.801 23.9001 856.901 23.9001C846.001 23.9001 840.301 19.8001 838.601 11.6001H818.201C819.001 31.2001 835.701 46.5001 855.301 45.6001C855.801 45.6001 856.301 45.5001 856.901 45.5001Z" fill="black"/>
<path d="M437.401 140.2V56.1001H411.701V178.7H438.501L490.301 93.2001V178.7H516.001V56.1001H489.201L437.401 140.2Z" fill="black"/>
<path d="M330.701 57.1001C311.401 56.2001 293.201 66.5001 284.001 83.4001C285.301 55.6001 291.001 39.1001 324.001 34.8001L375.401 27.9001L373.301 0.500109L319.701 7.70011C273.501 13.9001 260.501 48.5001 260.501 102.9C260.501 150.5 282.701 181 323.901 181C364.101 181 385.901 150.9 385.901 115.6C387.901 85.3001 364.901 59.2001 334.601 57.2001C333.401 57.1001 332.101 57.1001 330.701 57.1001ZM324.001 154C300.701 154 287.001 137.6 287.001 112.9V100.2C291.901 90.6001 305.001 83.1001 324.001 83.1001C344.101 83.1001 359.601 92.3001 359.601 115.6C359.601 138.9 347.301 154 324.001 154Z" fill="black"/>
<path d="M1017.5 56.1001V102H967.401V56.1001H941.701V178.7H967.401V127.3H1017.5V178.7H1043.2V56.1001H1017.5Z" fill="black"/>
<path d="M830.801 140.2V56.1001H805.101V178.7H831.901L883.701 93.2001V178.7H909.401V56.1001H882.601L830.801 140.2Z" fill="black"/>
<path d="M562.301 131.1C559.501 144.8 555.601 150.6 547.801 150.6C544.601 150.7 541.401 150.4 538.301 149.6V178C542.301 179.8 546.601 180.6 551.001 180.4C563.401 180.7 574.501 172.9 578.501 161.2C581.701 151.6 583.701 141.5 584.501 131.4C586.201 115 587.001 98.6001 587.001 82.1001H621.201V178.7H646.901V56.1001H565.501C566.001 81.2001 564.901 106.2 562.301 131.1Z" fill="black"/>
<path d="M768.201 145.5L768.601 96.9001C769.001 66.1001 749.601 53.4001 721.401 53.4001C697.001 51.5001 675.701 69.6001 673.801 94.0001C673.801 94.1001 673.801 94.3001 673.801 94.4001H698.501C699.901 83.1001 709.101 79.3001 721.401 79.3001C734.001 79.3001 742.501 83.1001 743.801 95.7001L712.301 108.1C690.801 116.7 674.601 126.3 674.601 146.5C674.601 167.4 686.601 180.8 710.501 180.8C725.701 181.2 739.701 172.4 745.901 158.5C747.201 173.3 757.201 179.8 774.601 179.8H781.701V156.2H779.601C771.401 156.1 768.201 153 768.201 145.5ZM719.901 155.1C707.901 155.1 699.101 152 699.101 141.4C699.101 132.2 706.501 128.1 719.201 122.9L743.801 113L743.501 146.2C737.301 152.4 728.701 155.6 719.901 155.1Z" fill="black"/>
<path d="M143.001 174.3C109.101 193.9 72.3008 197.4 48.8008 185.7C80.0008 204.3 118.501 204.5 149.901 186.4C181.001 168.8 200.201 135 199.801 98.4001C198.401 124.6 176.901 154.7 143.001 174.3Z" fill="black"/>
<path d="M112.701 7.40011C119.601 19.3001 103.001 41.8001 75.6008 57.6001C48.2008 73.4001 20.5008 76.6001 13.6008 64.7001C13.3008 64.1001 13.0008 63.5001 12.8008 62.9001C11.5008 55.6001 13.5008 48.2001 18.3008 42.6001C19.1008 41.4001 20.0008 40.3001 20.9008 39.1001C28.9008 28.7001 38.9008 20.0001 50.2008 13.5001C61.5008 6.80011 74.0008 2.60011 86.9008 0.900109C88.4008 0.700109 89.8008 0.500109 91.2008 0.400109C98.4008 -0.899891 105.801 1.00011 111.501 5.80011C111.901 6.30011 112.401 6.80011 112.701 7.40011Z" fill="black"/>
<path d="M155.201 20.2001C167.201 41.0001 143.001 77.4001 101.101 101.6C59.2008 125.8 15.5008 128.5 3.60078 107.7C1.60078 104.2 0.500781 100.3 0.300781 96.2001C-0.199219 110.5 2.30078 124.7 7.80078 137.9C8.60078 139.9 9.50078 141.9 10.5008 143.9L10.6008 144.2C14.4008 150.5 19.8008 155.6 26.2008 158.9C49.7008 171.5 89.4008 167.2 126.601 145.7C163.701 124.3 187.301 92.0001 188.201 65.4001C188.601 58.1001 186.901 50.9001 183.301 44.6001C181.901 42.6001 180.501 40.6001 179.001 38.7001C170.301 27.5001 159.401 18.3001 147.001 11.8001C150.401 13.9001 153.201 16.8001 155.201 20.2001Z" fill="black"/>
</svg>
