<svg width="73" height="73" viewBox="0 0 73 73" fill="none" xmlns="http://www.w3.org/2000/svg">
<path d="M62.3326 40.5327C63.1462 37.688 63.5806 34.7562 63.5806 31.7903C63.5806 14.2609 49.3197 0 31.7903 0C14.2609 0 0 14.2609 0 31.7903C0 49.3197 14.2609 63.5806 31.7903 63.5806C33.7566 63.5806 35.73 63.3864 37.6774 63.019V73H70.6452V53.6138L73 55.1833V47.6443L62.3326 40.5327ZM28.4335 2.55265C25.9138 4.97577 22.1084 9.25216 19.2308 15.1616C15.3724 13.372 13.2189 11.0677 12.2593 9.79495C16.6711 5.87297 22.265 3.25674 28.4335 2.55265ZM20.0161 23.5484C20.0161 24.8471 18.96 25.9032 17.6613 25.9032C16.3626 25.9032 15.3065 24.8471 15.3065 23.5484C15.3065 22.2497 16.3626 21.1935 17.6613 21.1935C18.96 21.1935 20.0161 22.2497 20.0161 23.5484ZM10.5603 11.4327C11.7683 12.9693 14.1797 15.4042 18.2641 17.2986C18.0545 17.799 17.8626 18.3195 17.6695 18.8399C17.6672 18.8399 17.6636 18.8387 17.6613 18.8387C15.0639 18.8387 12.9516 20.951 12.9516 23.5484C12.9516 25.3852 14.0184 26.9617 15.5549 27.7376C15.4477 28.702 15.3795 29.6604 15.3477 30.6129H2.38427C2.67863 23.1846 5.73874 16.4591 10.5603 11.4327ZM10.5662 52.1538C5.7411 47.1274 2.67863 40.3996 2.38427 32.9677H15.3347C15.4925 37.9883 16.6322 42.4625 18.2453 46.3256C14.1855 48.2153 11.7777 50.6326 10.5662 52.1538ZM12.2746 53.7998C13.2519 52.5435 15.423 50.2558 19.2225 48.472C22.086 54.3414 25.8915 58.6049 28.4182 61.0268C22.2626 60.3215 16.6817 57.7112 12.2746 53.7998ZM30.6129 59.8353C28.3158 57.69 24.3796 53.476 21.4467 47.5571C21.6245 47.4936 21.8199 47.4394 22.0036 47.3794C22.8514 48.6286 24.2831 49.4516 25.9032 49.4516C28.0779 49.4516 29.8959 47.9622 30.4351 45.9547C30.4952 45.9523 30.5529 45.9476 30.6129 45.9453V59.8353ZM23.5484 44.7419C23.5484 43.4432 24.6045 42.3871 25.9032 42.3871C27.2019 42.3871 28.2581 43.4432 28.2581 44.7419C28.2581 46.0406 27.2019 47.0968 25.9032 47.0968C24.6045 47.0968 23.5484 46.0406 23.5484 44.7419ZM30.6129 43.5892C30.5599 43.5916 30.5081 43.5928 30.4551 43.5951C29.9406 41.5535 28.1026 40.0323 25.9032 40.0323C23.3058 40.0323 21.1935 42.1445 21.1935 44.7419C21.1935 44.8832 21.223 45.0163 21.2348 45.154C20.9745 45.2388 20.7085 45.32 20.4588 45.4107C18.9353 41.7901 17.8509 37.6185 17.6907 32.9677H30.6129V43.5892ZM30.6129 30.6129H17.7025C17.7308 29.8252 17.7861 29.034 17.8697 28.2369C20.3682 28.125 22.371 26.074 22.371 23.5484C22.371 21.787 21.3878 20.2669 19.9525 19.4592C20.1139 19.0318 20.2728 18.6009 20.4471 18.1876C23.1904 19.1696 26.5485 19.8572 30.6129 19.9737V30.6129ZM30.6129 17.6213C26.937 17.5094 23.9051 16.9042 21.4302 16.0435C24.3643 10.1164 28.3099 5.89887 30.6129 3.75244V17.6213ZM53.0121 11.4233C57.8395 16.4509 60.902 23.1799 61.1964 30.6129H48.2459C48.1235 26.7156 47.41 23.1469 46.3397 19.9396C46.5869 19.9796 46.8377 20.0161 47.0968 20.0161C49.6942 20.0161 51.8064 17.9038 51.8064 15.3065C51.8064 14.5706 51.6228 13.883 51.3202 13.2625C52.0396 12.5784 52.593 11.9508 53.0121 11.4233ZM61.1799 32.9677C61.0963 35.0624 60.7972 37.1334 60.2733 39.1598L54.1613 35.0847L47.4206 39.579C47.8939 37.3937 48.1576 35.1836 48.2295 32.9677H61.1799ZM44.7419 15.3065C44.7419 14.0078 45.7981 12.9516 47.0968 12.9516C48.3955 12.9516 49.4516 14.0078 49.4516 15.3065C49.4516 16.6051 48.3955 17.6613 47.0968 17.6613C45.7981 17.6613 44.7419 16.6051 44.7419 15.3065ZM51.3084 9.78318C50.9611 10.2353 50.4654 10.8158 49.7989 11.4598C49.0324 10.9206 48.1035 10.5968 47.0968 10.5968C45.4295 10.5968 43.9695 11.474 43.1324 12.7844C40.4738 8.10535 37.3419 4.64374 35.1625 2.55382C41.3192 3.2591 46.9025 5.87061 51.3084 9.78318ZM32.9677 3.74537C35.2637 5.88945 39.1963 10.0987 42.1281 16.0105C39.3811 16.9713 36.3128 17.5094 32.9677 17.6118V3.74537ZM32.9677 19.9914C36.6695 19.8854 40.0782 19.2826 43.1289 18.1888C44.6489 21.8046 45.7298 25.9692 45.8899 30.6129H32.9677V19.9914ZM32.9677 32.9677H45.8746C45.7745 35.8477 45.3177 38.7194 44.4935 41.5299L40.0275 44.5076C37.8046 43.9778 35.4403 43.674 32.9677 43.5998V32.9677ZM37.6774 60.6159C36.8344 60.7878 35.9878 60.9338 35.1365 61.0315C35.8877 60.3062 36.752 59.4185 37.6774 58.367V60.6159ZM37.6774 54.6699C35.9125 56.9435 34.204 58.6861 32.9677 59.8376V45.9547C34.443 46.0018 35.8736 46.1348 37.2547 46.3562L35.3226 47.6443V55.1833L37.6774 53.6138V54.6699ZM58.871 70.6452H49.4516V56.5161H58.871V70.6452ZM68.2903 70.6452H61.2258V54.1613H47.0968V70.6452H40.0323V52.0443L54.1613 42.6249L68.2903 52.0443V70.6452ZM70.6452 50.7844L54.1613 39.7944L37.6774 50.7844V48.9041L54.1613 37.9153L70.6452 48.9041V50.7844Z" fill="white"/>
</svg>
