<svg width="82" height="82" viewBox="0 0 82 82" fill="none" xmlns="http://www.w3.org/2000/svg">
<path d="M43.6198 4.30485L47.5848 8.17616C49.0687 9.62505 51.1747 10.2434 53.2064 9.82684L58.635 8.71373C60.6296 8.30474 62.5862 9.56214 63.0428 11.5464L64.2854 16.9468C64.7504 18.968 66.1878 20.6268 68.1222 21.3748L73.2908 23.3733C75.1899 24.1076 76.1561 26.2232 75.4674 28.1393L73.593 33.3542C72.8915 35.3059 73.2039 37.4785 74.4268 39.1536L77.6945 43.6292C78.8951 45.2737 78.5641 47.5757 76.9488 48.8154L72.5526 52.1891C70.9073 53.4517 69.9955 55.4483 70.1187 57.5186L70.4479 63.0503C70.5689 65.0829 69.0458 66.8406 67.0168 67.0101L61.4945 67.4715C59.4277 67.6442 57.5812 68.8308 56.5656 70.6391L53.8519 75.4707C52.8547 77.2459 50.6232 77.9012 48.8246 76.9468L43.9295 74.3494C42.0975 73.3773 39.9025 73.3773 38.0705 74.3494L33.1754 76.9468C31.3768 77.9012 29.1453 77.2459 28.1481 75.4707L25.4344 70.6391C24.4188 68.8308 22.5723 67.6442 20.5055 67.4715L14.9832 67.0101C12.9542 66.8406 11.4311 65.0829 11.5521 63.0503L11.8813 57.5186C12.0045 55.4483 11.0927 53.4517 9.44737 52.1891L5.05119 48.8154C3.43589 47.5757 3.10489 45.2737 4.30553 43.6292L7.57315 39.1536C8.7961 37.4785 9.10847 35.3059 8.40698 33.3542L6.53264 28.1393C5.84394 26.2232 6.8101 24.1076 8.70921 23.3733L13.8778 21.3748C15.8122 20.6268 17.2496 18.968 17.7146 16.9468L18.9572 11.5464C19.4138 9.56214 21.3704 8.30474 23.365 8.71373L28.7935 9.82684C30.8253 10.2434 32.9313 9.62505 34.4152 8.17616L38.3802 4.30486C39.8371 2.88241 42.1629 2.88241 43.6198 4.30485Z" stroke="white" stroke-width="2.5"/>
<path d="M19.5997 51.5111L16.9385 39.5002L27.1317 37.2417L27.6644 39.6455L19.8749 41.3715L20.4113 43.792L27.5977 42.1997L28.1303 44.6036L20.9439 46.1959L22.0036 50.9784L19.5997 51.5111Z" fill="white"/>
<path d="M30.5619 49.0821L27.9006 37.0713L37.4909 34.9464L38.9512 35.9057L40.2818 41.9111L39.3578 43.3724L40.8089 44.2899L41.3415 46.6937L38.9544 47.2226L38.6927 46.0416L37.224 45.0841L35.7563 44.1704L32.1714 44.9647L32.9657 48.5495L30.5619 49.0821ZM31.6388 42.5609L37.6275 41.2339L36.8258 37.6156L30.8371 38.9425L31.6388 42.5609Z" fill="white"/>
<path d="M42.6129 46.412L39.9517 34.4012L50.1449 32.1426L50.6775 34.5465L42.8881 36.2724L43.4244 38.693L50.6108 37.1007L51.1435 39.5045L43.9571 41.0968L44.4841 43.4755L52.2736 41.7496L52.8062 44.1534L42.6129 46.412Z" fill="white"/>
<path d="M53.9101 43.9088L51.2488 31.898L61.4421 29.6395L61.9747 32.0433L54.1853 33.7692L54.7216 36.1898L61.908 34.5975L62.4406 37.0014L55.2543 38.5937L55.7813 40.9724L63.5708 39.2464L64.1034 41.6503L53.9101 43.9088Z" fill="white"/>
</svg>
