<svg width="74" height="64" viewBox="0 0 74 64" fill="none" xmlns="http://www.w3.org/2000/svg">
<path d="M71.1248 29.5625C70.6168 29.5592 70.1225 29.3973 69.711 29.0994L36.9998 5.74813L4.28851 29.0994C3.76372 29.4102 3.14148 29.513 2.54462 29.3874C1.94776 29.2618 1.41966 28.9171 1.06457 28.4212C0.709484 27.9253 0.553211 27.3143 0.626606 26.7088C0.7 26.1033 0.997727 25.5473 1.46101 25.1506L35.586 0.775626C35.9988 0.481702 36.493 0.323753 36.9998 0.323753C37.5065 0.323753 38.0007 0.481702 38.4135 0.775626L72.5385 25.1506C72.9547 25.4519 73.265 25.877 73.4252 26.3651C73.5854 26.8533 73.5872 27.3796 73.4304 27.8689C73.2736 28.3581 72.9662 28.7854 72.5522 29.0895C72.1381 29.3937 71.6385 29.5592 71.1248 29.5625Z" fill="#FCFCFC"/>
<path d="M10.1873 14.9375C9.5408 14.9375 8.92081 14.6807 8.46369 14.2236C8.00657 13.7665 7.74976 13.1465 7.74976 12.5V2.75C7.74976 2.10353 8.00657 1.48355 8.46369 1.02643C8.92081 0.569307 9.5408 0.3125 10.1873 0.3125H19.9373C20.5837 0.3125 21.2037 0.569307 21.6608 1.02643C22.118 1.48355 22.3748 2.10353 22.3748 2.75C22.3748 3.39647 22.118 4.01645 21.6608 4.47357C21.2037 4.93069 20.5837 5.1875 19.9373 5.1875H12.6248V12.5C12.6248 13.1465 12.368 13.7665 11.9108 14.2236C11.4537 14.6807 10.8337 14.9375 10.1873 14.9375Z" fill="#FCFCFC"/>
<path d="M58.9373 63.6875H46.7498C46.1033 63.6875 45.4833 63.4307 45.0262 62.9736C44.5691 62.5165 44.3123 61.8965 44.3123 61.25V44.1875H29.6873V61.25C29.6873 61.8965 29.4305 62.5165 28.9733 62.9736C28.5162 63.4307 27.8962 63.6875 27.2498 63.6875H15.0623C13.1229 63.6875 11.2629 62.9171 9.89154 61.5457C8.52018 60.1744 7.74976 58.3144 7.74976 56.375V32C7.74976 31.3535 8.00657 30.7335 8.46369 30.2764C8.92081 29.8193 9.5408 29.5625 10.1873 29.5625C10.8337 29.5625 11.4537 29.8193 11.9108 30.2764C12.368 30.7335 12.6248 31.3535 12.6248 32V56.375C12.6248 57.0215 12.8816 57.6415 13.3387 58.0986C13.7958 58.5557 14.4158 58.8125 15.0623 58.8125H24.8123V41.75C24.8123 41.1035 25.0691 40.4835 25.5262 40.0264C25.9833 39.5693 26.6033 39.3125 27.2498 39.3125H46.7498C47.3962 39.3125 48.0162 39.5693 48.4733 40.0264C48.9305 40.4835 49.1873 41.1035 49.1873 41.75V58.8125H58.9373C59.5837 58.8125 60.2037 58.5557 60.6608 58.0986C61.118 57.6415 61.3748 57.0215 61.3748 56.375V32C61.3748 31.3535 61.6316 30.7335 62.0887 30.2764C62.5458 29.8193 63.1658 29.5625 63.8123 29.5625C64.4587 29.5625 65.0787 29.8193 65.5358 30.2764C65.993 30.7335 66.2498 31.3535 66.2498 32V56.375C66.2498 58.3144 65.4793 60.1744 64.108 61.5457C62.7366 62.9171 60.8767 63.6875 58.9373 63.6875Z" fill="#FCFCFC"/>
</svg>
