<svg width="304" height="55" viewBox="0 0 304 55" fill="none" xmlns="http://www.w3.org/2000/svg">
<g clip-path="url(#clip0_212_2)">
<path d="M30.3 0.700195V28.5002C30.3 29.8002 29.3 30.7002 28.1 30.7002H24.8C24.6 30.7002 24.5 30.9002 24.5 31.0002V54.3002C25.3 54.3002 26.1 54.5002 27 54.5002C41.9 54.5002 54 42.4002 54 27.5002C54 13.8002 43.7 2.3002 30.3 0.700195ZM29.7 42.3002C27.8 42.3002 26.4 40.7002 26.4 39.0002C26.4 37.1002 28 35.7002 29.7 35.7002C31.6 35.7002 33 37.3002 33 39.0002C33.2 40.8002 31.6 42.3002 29.7 42.3002ZM37.6 42.3002C35.7 42.3002 34.3 40.7002 34.3 39.0002C34.3 37.1002 35.9 35.7002 37.6 35.7002C39.5 35.7002 40.9 37.3002 40.9 39.0002C40.9 40.7002 39.6 42.3002 37.6 42.3002ZM45.6 42.3002C43.7 42.3002 42.3 40.7002 42.3 39.0002C42.3 37.1002 43.9 35.7002 45.6 35.7002C47.5 35.7002 48.9 37.3002 48.9 39.0002C48.9 40.7002 47.5 42.3002 45.6 42.3002Z" fill="#00B956"/>
<path d="M27 0.600098C12.1 0.600098 0 12.7001 0 27.6001C0 40.7001 9.1 51.4001 21.3 53.9001V29.6001C21.3 28.5001 22.3 27.6001 23.3 27.4001H24.4H26.6C26.8 27.4001 26.9 27.2001 26.9 27.1001L27 0.600098ZM21.8 22.8001C19.9 22.8001 18.5 21.2001 18.5 19.5001C18.5 17.6001 20.1 16.2001 21.8 16.2001C23.7 16.2001 25.1 17.8001 25.1 19.5001C25.1 21.2001 23.6 22.8001 21.8 22.8001Z" fill="#00B956"/>
<path d="M297.3 15.2998V25.4998H283.7V15.2998H276.8V42.2998H283.7V31.3998H297.3V42.2998H304V15.2998H297.3Z" fill="#00B956"/>
<path d="M184.9 18.3997C183.8 15.9997 181.6 14.6997 179.4 14.6997C177.2 14.6997 174.9 15.9997 173.9 18.3997L163 42.3997H170.2L172.6 36.6997H186.6L189 42.3997H196.2L184.9 18.3997ZM174.5 31.2997L178.6 21.3997C178.8 21.0997 178.9 21.0997 179.1 21.0997C179.3 21.0997 179.6 21.0997 179.6 21.3997L183.7 31.2997H174.5Z" fill="#00B956"/>
<path d="M104.5 10.4999C101.3 10.4999 99.2996 12.1999 97.7996 15.5999L89.0996 35.8999L80.2996 15.4999C78.8996 12.1999 76.7996 10.3999 73.5996 10.3999C70.5996 10.3999 67.5996 12.3999 67.5996 17.0999V42.1999H74.2996V17.9999L83.1996 38.0999C84.2996 40.9999 86.3996 42.6999 89.0996 42.6999C91.9996 42.6999 93.8996 40.9999 94.9996 38.0999L103.9 17.9999V42.4999H110.6V17.3999C110.5 12.6999 107.5 10.4999 104.5 10.4999Z" fill="#00B956"/>
<path d="M122.4 36.6001C122.1 36.6001 121.7 36.3001 121.7 35.9001V31.1001H138.5V25.6001H121.7V21.5001C121.7 21.2001 122 20.8001 122.4 20.8001H139.1V15.1001H119.1C116.7 15.1001 115.1 17.0001 115.1 19.1001V38.0001C115.1 40.0001 116.8 42.0001 119.1 42.0001H139.1V36.3001H122.4V36.6001Z" fill="#00B956"/>
<path d="M150.4 42.2998V21.6998C150.4 21.3998 150.7 20.9998 151.1 20.9998H167.8V15.2998H147.8C145.4 15.2998 143.8 17.1998 143.8 19.2998V42.1998L150.4 42.2998Z" fill="#00B956"/>
<path d="M272.399 28.9001C272.399 19.5001 268.299 15.1001 258.099 15.1001H255.699C245.499 15.1001 241.399 19.6001 241.399 28.9001C241.399 38.1001 245.499 42.7001 255.699 42.7001H257.899C268.299 42.5001 272.399 38.1001 272.399 28.9001ZM257.899 37.0001H255.699C250.199 37.0001 247.899 34.5001 247.899 28.9001C247.899 23.5001 249.799 20.8001 255.699 20.8001H257.899C263.599 20.8001 265.699 23.5001 265.699 28.9001C265.699 34.4001 263.599 37.0001 257.899 37.0001Z" fill="#00B956"/>
<path d="M222.7 11.1001H209.3C199.3 11.1001 195.3 16.2001 195.3 24.9001C195.3 26.3001 195.5 27.6001 195.6 28.7001C196.7 34.9001 200.4 38.7001 209.7 38.7001H212.7V42.2001H219.4V38.7001H222.3C231.7 38.7001 235.4 34.9001 236.4 28.7001C236.6 27.6001 236.7 26.3001 236.7 24.9001C236.6 16.2001 232.5 11.1001 222.7 11.1001ZM212.5 33.1001H209.5C204.9 33.1001 203.3 31.4001 202.3 28.6001C202 27.6001 202 26.2001 202 24.8001C202 19.1001 204.7 16.7001 208.5 16.7001H212.6V33.1001H212.5ZM229.7 28.9001C228.7 31.6001 227 33.4001 222.5 33.4001H219.5V16.9001H223.6C227.4 16.9001 230.1 19.3001 230.1 25.0001C230 26.5001 230 27.7001 229.7 28.9001Z" fill="#00B956"/>
</g>
<defs>
<clipPath id="clip0_212_2">
<rect width="304" height="55" fill="white"/>
</clipPath>
</defs>
</svg>
