<svg width="35" height="33" viewBox="0 0 35 33" fill="none" xmlns="http://www.w3.org/2000/svg">
<path d="M17.7125 9.44832C14.7923 9.44832 11.8731 9.12347 9.0394 8.48204C8.75219 8.41707 8.57388 8.14069 8.64114 7.86226C8.70841 7.58588 8.98815 7.41366 9.28391 7.4776C15.4692 8.87804 22.0431 8.70169 28.159 6.96404C28.4473 6.88566 28.7399 7.03932 28.8221 7.3126C28.9054 7.58691 28.7442 7.87257 28.4612 7.95301C24.9687 8.94507 21.3523 9.44832 17.7125 9.44832Z" fill="#D1514B"/>
<path d="M28.3096 27.1858C28.2594 27.1858 28.2092 27.1786 28.158 27.1642C21.3684 25.2347 14.0566 25.2347 7.26701 27.1642C6.97979 27.2415 6.68617 27.0889 6.60396 26.8156C6.52067 26.5413 6.6819 26.2556 6.96484 26.1752C13.9531 24.189 21.473 24.189 28.4612 26.1752C28.7442 26.2556 28.9054 26.5413 28.8221 26.8156C28.7538 27.0414 28.5402 27.1858 28.3096 27.1858Z" fill="#D1514B"/>
<path d="M17.0601 31.5966C16.9554 31.5966 16.8519 31.5678 16.759 31.5069C11.7759 28.2224 8.80127 22.8217 8.80127 17.0601C8.80127 12.3917 10.7029 7.99751 14.158 4.68719C14.3684 4.48404 14.7068 4.48816 14.9129 4.68925C15.1211 4.89138 15.119 5.21829 14.9108 5.41835C11.6596 8.53376 9.86899 12.668 9.86899 17.0601C9.86899 22.4804 12.6696 27.5634 17.3622 30.6551C17.6057 30.8149 17.6676 31.1367 17.5021 31.3718C17.3975 31.5183 17.2298 31.5966 17.0601 31.5966Z" fill="#D1514B"/>
<path d="M18.4106 31.5965C18.2408 31.5965 18.0732 31.5182 17.9696 31.3717C17.8041 31.1356 17.8661 30.8148 18.1095 30.655C22.8021 27.5633 25.6027 22.4803 25.6027 17.06C25.6027 11.6398 22.8021 6.55676 18.1095 3.46507C17.8661 3.30522 17.8041 2.98347 17.9696 2.74835C18.1362 2.51322 18.4693 2.45547 18.7117 2.61326C23.6947 5.89779 26.6694 11.2984 26.6694 17.06C26.6694 22.8216 23.6947 28.2223 18.7117 31.5068C18.6199 31.5666 18.5152 31.5965 18.4106 31.5965Z" fill="#D1514B"/>
<path d="M17.7126 31.4429C17.4179 31.4429 17.1787 31.2119 17.1787 30.9273V3.19287C17.1787 2.90825 17.4179 2.67725 17.7126 2.67725C18.0073 2.67725 18.2464 2.90825 18.2464 3.19287V30.9273C18.2464 31.213 18.0073 31.4429 17.7126 31.4429Z" fill="#D1514B"/>
<path d="M32.6037 17.5757H4.95622C4.66153 17.5757 4.42236 17.3447 4.42236 17.0601C4.42236 16.7754 4.66153 16.5444 4.95622 16.5444H32.6048C32.8995 16.5444 33.1387 16.7754 33.1387 17.0601C33.1387 17.3447 32.8995 17.5757 32.6037 17.5757Z" fill="#D1514B"/>
<path d="M17.7124 32.0132C9.17598 32.0132 2.23047 25.3049 2.23047 17.0601C2.23047 13.429 3.59501 9.92484 6.07426 7.19615C6.26858 6.98165 6.60491 6.96103 6.82806 7.14872C7.04908 7.3364 7.07044 7.66228 6.87718 7.87678C4.56984 10.4167 3.29819 13.6786 3.29819 17.0601C3.29819 24.7367 9.76429 30.9819 17.7124 30.9819C25.6605 30.9819 32.1266 24.7367 32.1266 17.0601C32.1266 9.38343 25.6605 3.13818 17.7124 3.13818C14.426 3.13818 11.3317 4.17768 8.76597 6.14428C8.53535 6.32165 8.20008 6.28556 8.01644 6.06075C7.83279 5.838 7.87123 5.51418 8.10292 5.33681C10.8587 3.22378 14.1814 2.10693 17.7124 2.10693C26.2488 2.10693 33.1943 8.81521 33.1943 17.0601C33.1943 25.3049 26.2488 32.0132 17.7124 32.0132Z" fill="#D1514B"/>
</svg>
