<svg width="34" height="32" viewBox="0 0 34 32" fill="none" xmlns="http://www.w3.org/2000/svg">
<g clip-path="url(#clip0_18_1904)">
<path d="M30.4169 7.9576C30.3559 7.87862 30.2794 7.81202 30.1917 7.7616C30.1041 7.71119 30.007 7.67795 29.906 7.66379C29.8051 7.64963 29.7022 7.65482 29.6033 7.67906C29.5045 7.70331 29.4115 7.74614 29.3298 7.8051L16.8045 16.8351C16.7597 16.8676 16.7052 16.8851 16.6492 16.8851C16.5931 16.8851 16.5387 16.8676 16.4938 16.8351L4.21444 7.7651C4.13337 7.70535 4.04091 7.66161 3.94233 7.63637C3.84376 7.61113 3.74101 7.60489 3.63994 7.61801C3.53887 7.63112 3.44146 7.66334 3.35328 7.71281C3.2651 7.76229 3.18788 7.82805 3.12601 7.90635C3.06415 7.98465 3.01886 8.07396 2.99272 8.16916C2.96659 8.26437 2.96013 8.36362 2.97371 8.46123C2.98729 8.55885 3.02065 8.65293 3.07187 8.7381C3.1231 8.82326 3.19119 8.89785 3.27226 8.9576L12.927 16.0901L3.37838 23.0401C3.29612 23.0994 3.22675 23.1737 3.17423 23.2588C3.12172 23.344 3.08708 23.4383 3.07229 23.5364C3.05751 23.6345 3.06288 23.7344 3.08808 23.8305C3.11329 23.9266 3.15784 24.0169 3.21919 24.0964C3.28055 24.1758 3.3575 24.2428 3.44567 24.2935C3.53383 24.3443 3.63148 24.3777 3.73303 24.392C3.83458 24.4063 3.93804 24.4011 4.03752 24.3767C4.137 24.3524 4.23054 24.3094 4.3128 24.2501L14.2083 17.0351L15.5491 18.0351C15.8617 18.2662 16.2438 18.3927 16.6375 18.3954C17.0312 18.3981 17.4151 18.2769 17.7311 18.0501L19.1392 17.0351L29.1512 24.2501C29.2329 24.309 29.3259 24.3518 29.4248 24.3761C29.5236 24.4003 29.6265 24.4055 29.7274 24.3913C29.8284 24.3772 29.9255 24.3439 30.0131 24.2935C30.1008 24.2431 30.1773 24.1766 30.2383 24.0976C30.2993 24.0186 30.3436 23.9289 30.3687 23.8334C30.3938 23.7379 30.3992 23.6385 30.3845 23.541C30.3698 23.4435 30.3354 23.3498 30.2833 23.2651C30.2311 23.1804 30.1622 23.1065 30.0804 23.0476L20.436 16.0876L30.259 9.0001C30.4219 8.88127 30.5299 8.70525 30.5594 8.51014C30.589 8.31503 30.5378 8.11653 30.4169 7.9576Z" fill="#D1514B"/>
<path d="M29.4517 4.75H4.08525C3.05552 4.75 2.06796 5.14509 1.33983 5.84835C0.611697 6.55161 0.202637 7.50544 0.202637 8.5L0.202637 23.5C0.202637 24.4946 0.611697 25.4484 1.33983 26.1517C2.06796 26.8549 3.05552 27.25 4.08525 27.25H29.4517C30.4814 27.25 31.4689 26.8549 32.1971 26.1517C32.9252 25.4484 33.3343 24.4946 33.3343 23.5V8.5C33.3343 7.50544 32.9252 6.55161 32.1971 5.84835C31.4689 5.14509 30.4814 4.75 29.4517 4.75ZM31.7812 23.5C31.7812 24.0967 31.5358 24.669 31.0989 25.091C30.662 25.5129 30.0695 25.75 29.4517 25.75H4.08525C3.46741 25.75 2.87488 25.5129 2.438 25.091C2.00112 24.669 1.75568 24.0967 1.75568 23.5V8.5C1.75568 7.90326 2.00112 7.33097 2.438 6.90901C2.87488 6.48705 3.46741 6.25 4.08525 6.25H29.4517C30.0695 6.25 30.662 6.48705 31.0989 6.90901C31.5358 7.33097 31.7812 7.90326 31.7812 8.5V23.5Z" fill="#D1514B"/>
</g>
<defs>
<clipPath id="clip0_18_1904">
<rect width="33.1316" height="32" fill="white" transform="translate(0.202637)"/>
</clipPath>
</defs>
</svg>
