<svg width="28" height="28" viewBox="0 0 28 28" fill="none" xmlns="http://www.w3.org/2000/svg">
<path d="M14 28C11.2311 28 8.52431 27.1789 6.22202 25.6406C3.91973 24.1022 2.12532 21.9157 1.06569 19.3576C0.00606596 16.7994 -0.271181 13.9845 0.269012 11.2687C0.809205 8.55301 2.14258 6.05845 4.10051 4.10051C6.05845 2.14258 8.55301 0.809205 11.2687 0.269012C13.9845 -0.271181 16.7994 0.00606596 19.3576 1.06569C21.9157 2.12532 24.1022 3.91973 25.6406 6.22202C27.1789 8.52431 28 11.2311 28 14C28 17.713 26.525 21.274 23.8995 23.8995C21.274 26.525 17.713 28 14 28ZM14 2.15385C11.6571 2.15385 9.36672 2.84862 7.41863 4.15029C5.47054 5.45196 3.95219 7.30208 3.05559 9.46668C2.15898 11.6313 1.92439 14.0131 2.38147 16.3111C2.83856 18.609 3.9668 20.7198 5.62351 22.3765C7.28022 24.0332 9.39101 25.1614 11.6889 25.6185C13.9869 26.0756 16.3687 25.841 18.5333 24.9444C20.6979 24.0478 22.548 22.5295 23.8497 20.5814C25.1514 18.6333 25.8462 16.343 25.8462 14C25.8462 10.8582 24.5981 7.84509 22.3765 5.62351C20.1549 3.40193 17.1418 2.15385 14 2.15385Z" fill="#AD6FFB"/>
<path d="M14 15.0769C12.935 15.0769 11.894 14.7611 11.0085 14.1695C10.123 13.5778 9.43281 12.7368 9.02526 11.7529C8.61772 10.769 8.51108 9.68633 8.71885 8.64182C8.92662 7.59731 9.43945 6.63786 10.1925 5.88481C10.9456 5.13176 11.905 4.61892 12.9495 4.41116C13.994 4.20339 15.0767 4.31002 16.0606 4.71757C17.0445 5.12512 17.8855 5.81528 18.4771 6.70078C19.0688 7.58627 19.3846 8.62733 19.3846 9.69231C19.3846 11.1204 18.8173 12.49 17.8075 13.4998C16.7977 14.5096 15.4281 15.0769 14 15.0769ZM14 6.46154C13.361 6.46154 12.7364 6.65102 12.2051 7.00602C11.6738 7.36102 11.2597 7.8656 11.0152 8.45595C10.7706 9.04629 10.7066 9.69589 10.8313 10.3226C10.956 10.9493 11.2637 11.525 11.7155 11.9768C12.1673 12.4286 12.743 12.7363 13.3697 12.861C13.9964 12.9857 14.646 12.9217 15.2364 12.6771C15.8267 12.4326 16.3313 12.0185 16.6863 11.4872C17.0413 10.9559 17.2308 10.3313 17.2308 9.69231C17.2308 8.83546 16.8904 8.0137 16.2845 7.40781C15.6786 6.80192 14.8569 6.46154 14 6.46154Z" fill="#AD6FFB"/>
<path d="M24.2847 22.6154C24.1352 22.6164 23.9872 22.5863 23.85 22.527C23.7128 22.4676 23.5894 22.3804 23.4878 22.2708C22.3447 21.024 20.9553 20.028 19.4074 19.3458C17.8596 18.6636 16.187 18.3101 14.4955 18.3077H13.5047C10.3517 18.3009 7.31979 19.5214 5.05085 21.7108C4.84122 21.8838 4.57392 21.9711 4.30259 21.9552C4.03127 21.9394 3.77597 21.8215 3.58791 21.6253C3.39986 21.4291 3.29296 21.169 3.28865 20.8972C3.28435 20.6255 3.38295 20.3621 3.5647 20.16C6.23103 17.5829 9.79648 16.1459 13.5047 16.1539H14.4955C16.4837 16.1584 18.4495 16.574 20.2695 17.3746C22.0894 18.1752 23.7241 19.3435 25.0708 20.8062C25.2131 20.9596 25.3077 21.1512 25.3428 21.3574C25.378 21.5637 25.3523 21.7758 25.2689 21.9677C25.1856 22.1596 25.0481 22.3231 24.8733 22.4381C24.6985 22.5531 24.4939 22.6147 24.2847 22.6154Z" fill="#AD6FFB"/>
</svg>
