<svg width="25" height="19" viewBox="0 0 25 19" fill="none" xmlns="http://www.w3.org/2000/svg">
<g opacity="0.91">
<path d="M16.8543 0.58197C15.7019 0.58367 14.6234 1.14991 13.9676 2.0976C14.2134 2.71931 14.3543 3.39158 14.3543 4.09564C14.3543 4.78938 14.1792 5.42723 13.9168 6.02533C14.5658 7.01613 15.6699 7.6137 16.8543 7.61517C18.7972 7.61562 20.3724 6.04049 20.3719 4.0976C20.3713 2.15547 18.7965 0.581521 16.8543 0.58197ZM20.0008 8.34564L17.9129 11.6113C18.4416 12.7651 18.7515 14.028 18.7879 15.3495L18.8094 16.1328L18.2938 16.7206C17.5492 17.5713 16.6799 18.3087 15.7293 18.9335C16.1155 18.9767 16.5072 18.9999 16.9051 18.9999C20.0599 18.9999 22.8823 17.6055 24.8075 15.4062C24.7224 12.3157 22.8448 9.55821 20.0008 8.34564Z" fill="black"/>
<path d="M8.83676 0.57959C8.37493 0.57959 7.91762 0.670556 7.49095 0.84729C7.06428 1.02402 6.67659 1.28309 6.35003 1.60965C6.02347 1.93621 5.76443 2.32388 5.58769 2.75055C5.41096 3.17722 5.31999 3.63452 5.31999 4.09634C5.31999 4.55817 5.41096 5.0155 5.58769 5.44217C5.76443 5.86884 6.02347 6.25651 6.35003 6.58307C6.67659 6.90963 7.06428 7.16869 7.49095 7.34543C7.91762 7.52216 8.37493 7.61313 8.83676 7.61313C9.29859 7.61313 9.75589 7.52216 10.1826 7.34543C10.6092 7.16869 10.9969 6.90963 11.3235 6.58307C11.65 6.25651 11.9091 5.86884 12.0858 5.44217C12.2626 5.0155 12.3535 4.55817 12.3535 4.09634C12.3535 3.63452 12.2626 3.17722 12.0858 2.75055C11.9091 2.32388 11.65 1.93618 11.3235 1.60962C10.9969 1.28306 10.6092 1.02402 10.1826 0.84729C9.75589 0.670556 9.29859 0.57959 8.83676 0.57959ZM11.9826 8.34293L8.91231 13.1458L5.8008 8.34634C2.95432 9.55425 1.07225 12.3096 0.982422 15.4005C2.90766 17.6014 5.73047 18.9979 8.88656 18.9979C12.0413 18.9979 14.8638 17.6032 16.789 15.4039C16.7039 12.3134 14.8266 9.55549 11.9826 8.34293Z" fill="black"/>
</g>
</svg>
