<svg width="37" height="27" viewBox="0 0 37 27" fill="none" xmlns="http://www.w3.org/2000/svg">
<g clip-path="url(#clip0_18_1896)">
<path d="M5.92979 12.6C7.53087 12.6 8.82879 11.3464 8.82879 9.8C8.82879 8.25361 7.53087 7 5.92979 7C4.3287 7 3.03076 8.25361 3.03076 9.8C3.03076 11.3464 4.3287 12.6 5.92979 12.6Z" stroke="#D1514B" stroke-miterlimit="10"/>
<path d="M8.72511 23.6H2.82355C1.89173 23.6 1.27051 22.9 1.27051 22V19.2C1.27051 17 3.03062 15.3 5.30841 15.3H8.93219" stroke="#D1514B" stroke-miterlimit="10"/>
<path d="M18.3544 9.99994C20.8705 9.99994 22.91 8.03001 22.91 5.59995C22.91 3.1699 20.8705 1.19995 18.3544 1.19995C15.8385 1.19995 13.7988 3.1699 13.7988 5.59995C13.7988 8.03001 15.8385 9.99994 18.3544 9.99994Z" stroke="#D1514B" stroke-miterlimit="10"/>
<path d="M25.0839 25.2H11.21C9.76048 25.2 8.62158 24.1 8.62158 22.7V18.4C8.62158 15 11.6241 12.2 15.2479 12.2H21.1495C24.7733 12.2 27.7758 15 27.7758 18.4V22.7C27.6723 24.1 26.5334 25.2 25.0839 25.2Z" stroke="#D1514B" stroke-miterlimit="10"/>
<path d="M30.1573 12.6C31.7584 12.6 33.0563 11.3464 33.0563 9.8C33.0563 8.25361 31.7584 7 30.1573 7C28.5562 7 27.2583 8.25361 27.2583 9.8C27.2583 11.3464 28.5562 12.6 30.1573 12.6Z" stroke="#D1514B" stroke-miterlimit="10"/>
<path d="M27.3619 23.6H33.2634C34.1953 23.6 34.8165 22.9 34.8165 22V19.2C34.8165 17 33.0564 15.3 30.7786 15.3H27.1548" stroke="#D1514B" stroke-miterlimit="10"/>
</g>
<defs>
<clipPath id="clip0_18_1896">
<rect width="36.2377" height="27" fill="white" transform="translate(0.131836)"/>
</clipPath>
</defs>
</svg>
