<svg width="136" height="112" viewBox="0 0 136 112" fill="none" xmlns="http://www.w3.org/2000/svg">
<path d="M22.3086 92.39L18.243 94.8014C18.1366 94.8624 17.479 94.8365 16.4407 94.1753C15.0807 93.3095 13.6711 91.7694 12.5762 89.9437L4.39532 76.3128C3.72828 75.1953 2.27374 74.833 1.15285 75.4988C0.0319557 76.1647 -0.334832 77.6064 0.334439 78.7234L8.51532 92.3548C9.99583 94.8198 11.9045 96.8733 13.891 98.1364C15.348 99.0655 16.7813 99.5311 18.0961 99.5311C19.0208 99.5311 19.8887 99.3009 20.6693 98.8374L24.7324 96.4266C25.8535 95.7607 26.2201 94.319 25.5508 93.2015C24.884 92.0869 23.4319 91.7246 22.3086 92.39Z" fill="black"/>
<path d="M93.0811 97.8872C91.7732 97.8872 90.7162 98.9388 90.7162 100.239V104.944C90.7162 105.529 88.1998 107.296 83.6208 107.296H67.6565C66.3486 107.296 65.2915 108.347 65.2915 109.648C65.2915 110.949 66.3489 112 67.6565 112H83.6208C90.3637 112 95.4461 108.966 95.4461 104.943V100.239C95.4461 98.9408 94.389 97.8872 93.0811 97.8872Z" fill="black"/>
<path d="M92.6483 57.102L81.9417 52.9715L106.922 40.2249C110.202 38.0961 110.94 33.8502 108.573 30.7479L101.577 22.581C100.607 20.6522 98.6228 19.3136 96.305 19.3136H39.5432C36.2769 19.3136 33.6305 21.9459 33.6305 25.1941C33.6305 28.4425 36.2772 31.0745 39.5432 31.0745H79.0376L52.6714 43.8662C52.631 43.8851 52.5887 43.9085 52.546 43.9249L52.3592 44.0167L52.3711 44.0238C52.3402 44.0378 52.3145 44.0592 52.286 44.073C52.0968 44.1697 51.9123 44.2708 51.7325 44.3837C51.5317 44.5109 51.34 44.6449 51.1508 44.793C50.9757 44.9295 50.8102 45.0658 50.647 45.2186C50.4743 45.3809 50.3111 45.5548 50.155 45.7337C50.0084 45.9029 49.8664 46.077 49.7316 46.2652C49.5921 46.4605 49.4692 46.6677 49.3485 46.8792C49.28 46.9992 49.1947 47.1003 49.1308 47.2226L42.5062 60.595L16.2965 72.488C12.73 74.1066 11.1595 78.2932 12.7869 81.8383C13.9788 84.4352 16.5545 85.9686 19.2459 85.9686C20.2298 85.9686 21.2325 85.7615 22.1857 85.331L50.6967 72.3938C52.1866 71.7188 53.3928 70.5524 54.1165 69.0937L58.9886 59.2615L81.3788 67.8987L73.5741 93.4886C72.4388 97.2191 74.5557 101.159 78.3042 102.29C78.9923 102.497 79.6853 102.596 80.3664 102.596C83.4106 102.596 86.2249 100.632 87.1544 97.5856L96.8675 65.7348C97.9483 62.1971 96.1084 58.4382 92.6483 57.102Z" fill="black"/>
<path d="M104.317 13.8402C104.317 20.102 109.438 25.1968 115.739 25.1968C122.037 25.1968 127.141 20.102 127.141 13.8402C127.141 7.57406 122.037 2.4955 115.739 2.4955C109.438 2.4955 104.317 7.57406 104.317 13.8402Z" fill="black"/>
<path d="M89.2544 2.35209C89.2544 1.05133 88.1974 0 86.8895 0H50.8218C49.514 0 48.4569 1.05133 48.4569 2.35209C48.4569 3.65285 49.514 4.70418 50.8218 4.70418H86.8892C88.1949 4.70418 89.2544 3.65285 89.2544 2.35209Z" fill="black"/>
<path d="M36.0403 8.25617C34.7324 8.25617 33.6753 9.3075 33.6753 10.6083C33.6753 11.909 34.7324 12.9604 36.0403 12.9604H72.1077C73.4155 12.9604 74.4726 11.909 74.4726 10.6083C74.4726 9.3075 73.4155 8.25617 72.1077 8.25617H36.0403Z" fill="black"/>
<path d="M133.635 45.2564H110.994C109.686 45.2564 108.629 46.3078 108.629 47.6085C108.629 48.9093 109.686 49.9606 110.994 49.9606H133.635C134.943 49.9606 136 48.9093 136 47.6085C136 46.31 134.943 45.2564 133.635 45.2564Z" fill="black"/>
<path d="M124.357 53.5129H101.716C100.408 53.5129 99.3511 54.5642 99.3511 55.865C99.3511 57.166 100.408 58.217 101.716 58.217H124.357C125.665 58.217 126.722 57.166 126.722 55.865C126.722 54.5642 125.665 53.5129 124.357 53.5129Z" fill="black"/>
</svg>
