<svg width="52" height="80" viewBox="0 0 52 80" fill="none" xmlns="http://www.w3.org/2000/svg">
<path d="M40.3982 4.36726C31.6495 -1.4538 20.3454 -1.4538 11.6017 4.36726C0.333509 11.8573 -3.27375 26.4535 3.21214 38.3158L26 80.0002L48.7878 38.3158C55.2737 26.4535 51.6716 11.8573 40.3982 4.36726ZM44.2877 35.8686L26.0051 69.3154L7.71737 35.8686C2.51429 26.346 5.40318 14.6373 14.4496 8.62683C17.9593 6.29226 21.9771 5.11986 26 5.11986C30.0229 5.11986 34.0406 6.28714 37.5504 8.62171C46.5968 14.6373 49.4908 26.346 44.2877 35.8686Z" fill="#AD6FFB"/>
<path d="M25.9999 10.6642C18.929 10.6642 13.1718 16.4085 13.1718 23.4634C13.1718 30.5183 18.929 36.2626 25.9999 36.2626C33.0707 36.2626 38.828 30.5183 38.828 23.4634C38.828 16.4085 33.0759 10.6642 25.9999 10.6642ZM25.9999 31.1429C21.7564 31.1429 18.303 27.6974 18.303 23.4634C18.303 19.2295 21.7564 15.7839 25.9999 15.7839C30.2434 15.7839 33.6968 19.2295 33.6968 23.4634C33.6968 27.6974 30.2434 31.1429 25.9999 31.1429Z" fill="#AD6FFB"/>
</svg>
