<svg width="28" height="28" viewBox="0 0 28 28" fill="none" xmlns="http://www.w3.org/2000/svg">
<path d="M19.8326 27.9885C19.9589 27.9942 20.0794 27.9999 20.2057 27.9999C21.5547 27.9999 22.6799 27.512 23.5639 26.5533C23.5696 26.5476 23.5811 26.5361 23.5868 26.5304C23.9026 26.1515 24.2585 25.8071 24.6374 25.4454C24.8957 25.1986 25.1597 24.946 25.4066 24.682C26.5834 23.4535 26.5776 21.8978 25.3951 20.7153L22.123 17.4432C21.5605 16.8577 20.8888 16.5477 20.177 16.5477C19.4709 16.5477 18.7936 16.852 18.2138 17.4318L16.2792 19.3663C16.107 19.2687 15.9291 19.1826 15.7569 19.0965C15.5387 18.9874 15.3378 18.8841 15.1599 18.775C13.3861 17.6499 11.7787 16.1803 10.2403 14.2917C9.46532 13.3159 8.95442 12.5007 8.59277 11.6626C9.09793 11.2034 9.56865 10.7269 10.0221 10.2619C10.1886 10.0955 10.3551 9.92324 10.5273 9.75103C11.7558 8.52257 11.7558 7.00135 10.5273 5.77863L8.90276 4.15408C8.71332 3.96465 8.52963 3.77521 8.34593 3.59152C7.98429 3.22413 7.61115 2.83952 7.23803 2.49509C6.67546 1.93252 6.00957 1.63976 5.30349 1.63976C4.60316 1.63976 3.92578 1.93252 3.34025 2.49509L1.30239 4.52721C0.556132 5.27347 0.131339 6.18046 0.0394913 7.23097C-0.0638369 8.53979 0.177262 9.92898 0.797232 11.6052C1.75589 14.1941 3.19674 16.5994 5.33219 19.1711C7.93262 22.271 11.0554 24.7221 14.626 26.45C15.9865 27.0987 17.8062 27.8564 19.8326 27.9885ZM6.41714 18.2699C4.38502 15.8244 3.02453 13.5512 2.12328 11.1173C1.56645 9.619 1.3598 8.45368 1.4459 7.34578C1.50905 6.62822 1.78459 6.03121 2.30123 5.52031L4.32761 3.49393C4.6376 3.19542 4.97628 3.04043 5.30923 3.04043C5.63644 3.04043 5.9579 3.19542 6.26789 3.49967C6.62954 3.83836 6.9797 4.19426 7.34709 4.56739C7.53079 4.75683 7.72022 4.952 7.9154 5.14144L9.53995 6.76599C10.2058 7.43188 10.2058 8.08629 9.53995 8.75219C9.36774 8.9244 9.19552 9.09662 9.02905 9.26883C8.52389 9.77973 8.05317 10.2619 7.53079 10.7269C7.51931 10.7384 7.51357 10.7441 7.50209 10.7556C7.03711 11.2206 7.106 11.6683 7.2208 12.0013C7.22654 12.0185 7.23228 12.03 7.23803 12.0472C7.65708 13.0575 8.24835 14.0162 9.15534 15.1643C10.7914 17.1792 12.5135 18.7463 14.4193 19.9576C14.6547 20.1068 14.9015 20.2331 15.1426 20.3537C15.3608 20.4627 15.5617 20.566 15.7396 20.6751C15.7626 20.6866 15.7798 20.6981 15.8028 20.7096C15.9865 20.8014 16.1644 20.8473 16.3481 20.8473C16.8016 20.8473 17.0887 20.5603 17.1805 20.4627L19.2184 18.4249C19.5283 18.1149 19.8613 17.9541 20.1885 17.9541C20.5903 17.9541 20.9175 18.2067 21.1299 18.4249L24.4135 21.7084C25.2171 22.5121 24.8497 23.2354 24.3963 23.7118C24.1666 23.9587 23.9255 24.1883 23.673 24.4351C23.2883 24.8025 22.8923 25.1871 22.5306 25.6177C21.9106 26.2835 21.1759 26.5935 20.2172 26.5935C20.1254 26.5935 20.0278 26.5878 19.9359 26.5821C18.1506 26.4672 16.4974 25.7726 15.2517 25.1814C11.8534 23.5453 8.88554 21.2205 6.41714 18.2699Z" fill="white"/>
<path d="M15.3895 5.12422C15.0049 5.06107 14.6432 5.31939 14.5801 5.69826C14.5169 6.08287 14.7752 6.44452 15.1541 6.50767C16.7327 6.77747 18.1679 7.52373 19.3159 8.66608C20.4583 9.80843 21.2046 11.2493 21.4744 12.8279C21.5318 13.1723 21.8303 13.4134 22.169 13.4134C22.2091 13.4134 22.2493 13.4077 22.2895 13.402C22.6741 13.3388 22.9324 12.9714 22.8636 12.5926C22.5478 10.7269 21.6638 9.02199 20.3148 7.67298C18.9543 6.31823 17.2551 5.43994 15.3895 5.12422Z" fill="white"/>
<path d="M27.278 13.1724C27.3181 13.1724 27.3583 13.1666 27.3985 13.1609C27.7831 13.0977 28.0414 12.7304 27.9726 12.3515C27.4502 9.26312 25.9921 6.45604 23.7591 4.223C21.5203 1.98996 18.7132 0.531884 15.6248 0.0095023C15.2402 -0.0536427 14.8786 0.204678 14.8154 0.583548C14.7523 0.968159 15.0106 1.32981 15.3895 1.39295C18.1851 1.86941 20.7338 3.18972 22.7602 5.2161C24.7866 7.24248 26.1069 9.79124 26.5834 12.5868C26.6408 12.9313 26.9393 13.1724 27.278 13.1724Z" fill="white"/>
</svg>
