<svg width="21" height="17" viewBox="0 0 21 17" fill="none" xmlns="http://www.w3.org/2000/svg">
<path d="M1.05 1.06249V13.8226H19.95V1.06249H1.05ZM2.82049 14.8851H0.525C0.23505 14.8851 0 14.6473 0 14.3539V0.531246C0 0.237847 0.23505 0 0.525 0H20.475C20.7649 0 21 0.237847 21 0.531246V14.3539C21 14.6473 20.7649 14.8851 20.475 14.8851H18.1795L18.6995 15.9374H20.475C20.7649 15.9374 21 16.1752 21 16.4686C21 16.762 20.7649 16.9999 20.475 16.9999H18.3864C18.3791 17 18.3717 17 18.3644 16.9999H16.275C15.9851 16.9999 15.75 16.762 15.75 16.4686C15.75 16.1752 15.9851 15.9374 16.275 15.9374H17.5255L17.0056 14.8851H3.99442L3.47447 15.9374H4.725C5.01495 15.9374 5.25 16.1752 5.25 16.4686C5.25 16.762 5.01495 16.9999 4.725 16.9999H2.63556C2.62826 17 2.62095 17 2.61363 16.9999H0.525C0.23505 16.9999 0 16.762 0 16.4686C0 16.1752 0.23505 15.9374 0.525 15.9374H2.30053L2.82049 14.8851Z" fill="white"/>
<path d="M4.60078 5.95947V4.69824H10.2521V5.95947H8.06367V11H6.80684V5.95947H4.60078Z" fill="white"/>
<path d="M10.5677 9.11914V4.69824H11.8289V8.49072L13.077 9.73877H13.7098L14.9666 8.49072V4.69824H16.219V9.11914L14.3382 11H12.4485L10.5677 9.11914Z" fill="white"/>
</svg>
