<svg width="81" height="73" viewBox="0 0 81 73" fill="none" xmlns="http://www.w3.org/2000/svg">
<path d="M81 44.6129L69.6322 9.8793C70.5037 9.95741 71.2724 10.0307 71.8919 10.0947L72.1522 7.03472C67.9661 6.60499 57.8617 5.78902 46.923 5.55154C46.719 4.14682 46.1168 2.88807 45.2431 1.93101C44.1616 0.741678 42.6565 0 41.008 0C39.3608 0 37.8558 0.741678 36.7742 1.93101C35.9002 2.88807 35.2983 4.14682 35.094 5.55154C24.1556 5.78902 14.0511 6.60499 9.86507 7.03472L10.1241 10.0947C10.502 10.0548 10.9465 10.0126 11.4213 9.96768L0.0840059 44.6129L0.754787 44.8784H0C1.89812 48.7313 7.72569 51.5385 14.6218 51.5385C21.5191 51.5385 27.3454 48.7313 29.2435 44.8784H28.6496L29.3204 44.6129L17.8113 9.44434C22.6518 9.09795 28.8457 8.75277 35.3182 8.61428C35.6088 9.62024 36.1162 10.5155 36.7743 11.2393C37.5397 12.0796 38.522 12.6788 39.6117 12.9674V58.9903C38.7156 58.9903 37.8827 58.9903 37.2119 58.9903C36.2016 58.9903 35.547 58.9903 35.546 58.9903H34.3548L34.1657 60.2836V60.285C34.1553 60.3734 33.9206 61.7604 33.3 63.1166C32.992 63.794 32.5906 64.4586 32.1146 64.9667C31.634 65.4749 31.1019 65.8313 30.4346 65.997L29.3402 66.2651V72.1567H52.6769V70.621V66.2651L51.5826 65.997C50.8943 65.8263 50.3483 65.4517 49.8572 64.9155C49.4919 64.5152 49.1722 64.0251 48.9074 63.5066C48.5086 62.7317 48.2331 61.9004 48.0686 61.2767C47.9857 60.9637 47.9297 60.7045 47.8958 60.5274C47.8783 60.4402 47.8655 60.3734 47.8585 60.3311L47.8515 60.2875L47.8503 60.2836H47.8515L47.6625 58.9903H46.4726C46.4726 58.9903 44.6503 58.9903 42.4056 58.9903V12.9674C43.4953 12.6788 44.4774 12.0796 45.2429 11.2393C45.9007 10.5155 46.4073 9.62024 46.6989 8.61428C52.7691 8.7439 58.6 9.05689 63.2934 9.38032L51.7634 44.6131L52.4342 44.8786H51.6794C53.5775 48.7315 59.4038 51.5387 66.3012 51.5387C73.1984 51.5387 79.0248 48.7315 80.923 44.8786H80.3291L81 44.6129ZM27.287 44.8784H2.11739L13.6067 9.77265C14.2718 9.71628 14.9788 9.65851 15.7406 9.59814L27.287 44.8784ZM45.369 62.0631C45.5313 62.6867 45.775 63.4744 46.1426 64.3174C46.5475 65.2386 47.0982 66.224 47.881 67.0887C48.4234 67.6853 49.0977 68.2138 49.8829 68.591V69.0851H32.1345V68.591C32.9197 68.2138 33.5941 67.6853 34.1353 67.0887C34.7245 66.4408 35.1795 65.7235 35.5422 65.0178C36.086 63.9581 36.4209 62.9214 36.6296 62.1362C36.6367 62.1092 36.6413 62.0887 36.6482 62.0631C36.8232 62.0631 37.0042 62.0631 37.2117 62.0631C38.222 62.0617 39.5883 62.0617 41.0093 62.0631C42.7207 62.0631 44.3412 62.0617 45.369 62.0631ZM43.2668 9.06716C42.6846 9.70358 41.8947 10.0949 41.008 10.0949C40.1225 10.0949 39.3328 9.70358 38.7493 9.06716C38.6139 8.91318 38.4858 8.75016 38.3749 8.57062C38.0238 8.00483 37.8161 7.32474 37.8161 6.58324C37.8161 6.20205 37.8684 5.84156 37.9711 5.49899C38.1274 4.96783 38.3992 4.48921 38.7493 4.09915C39.3328 3.4629 40.1225 3.07145 41.008 3.07145C41.8947 3.07145 42.6846 3.4629 43.2668 4.09915C43.6191 4.48921 43.8897 4.96783 44.0461 5.49899C44.1499 5.84156 44.2013 6.20205 44.2013 6.58324C44.2013 7.32474 43.9938 8.00483 43.6424 8.57062C43.5304 8.75016 43.4032 8.91318 43.2668 9.06716ZM53.7957 44.8784L65.3656 9.52907C66.0982 9.58544 66.7948 9.63938 67.4504 9.69331L78.9666 44.8784H53.7957Z" fill="white"/>
</svg>
