<?xml version="1.0" standalone="no"?>
<!DOCTYPE svg PUBLIC "-//W3C//DTD SVG 20010904//EN"
 "http://www.w3.org/TR/2001/REC-SVG-20010904/DTD/svg10.dtd">
<svg version="1.0" xmlns="http://www.w3.org/2000/svg"
 width="700.000000pt" height="700.000000pt" viewBox="0 0 700.000000 700.000000"
 preserveAspectRatio="xMidYMid meet">
<metadata>
Created by potrace 1.14, written by Peter Selinger 2001-2017
</metadata>
<g transform="translate(0.000000,700.000000) scale(0.100000,-0.100000)"
fill="#000000" stroke="none">
<path d="M510 3505 l0 -1665 335 0 335 0 0 1121 0 1122 442 -637 443 -636 280
0 280 0 430 634 430 633 3 -1123 2 -1124 335 0 335 0 0 495 0 495 993 0 992 0
168 168 167 167 0 832 0 833 -166 170 -167 170 -1326 0 -1327 0 -573 -795
c-315 -437 -576 -797 -580 -799 -4 -3 -268 357 -586 800 l-579 804 -333 0
-333 0 0 -1665z m5310 485 l0 -500 -830 0 -830 0 0 500 0 500 830 0 830 0 0
-500z"/>
</g>
</svg>
